
<svg version="1.2" xmlns="http://www.w3.org/2000/svg" viewBox="0 0 1792 1792" width="1792" height="1792">
	<title>send-svg</title>
	<style>
		.s0 { fill: #ffffff }
	</style>
	<path id="Layer" class="s0" d="m1289.7 385.1q17.8 13 14.6 34.6l-138.2 829.4q-2.7 15.7-17.3 24.3-7.6 4.3-16.8 4.3-5.9 0-12.9-2.7l-244.6-99.9-130.7 159.3q-9.7 12.4-26.5 12.4-7 0-11.9-2.1-10.2-3.8-16.4-12.7-6.2-8.9-6.2-19.7v-188.5l466.5-571.8-577.2 499.5-213.3-87.5q-20-7.6-21.6-29.7-1.1-21.6 17.2-31.9l898.6-518.4q8.1-4.8 17.3-4.8 10.8 0 19.4 5.9z"/>
</svg>